<mxfile host="app.diagrams.net" modified="2021-02-22T16:23:12.254Z" agent="5.0 (Windows NT 10.0; Win64; x64) AppleWebKit/537.36 (KHTML, like Gecko) Chrome/88.0.4324.182 Safari/537.36" etag="Jl9bc8g0u7omrqHYwZMQ" version="14.4.2" type="github">
  <diagram id="vdyBipKdhQEOJ9ZFsOIl" name="Page-1">
    <mxGraphModel dx="1422" dy="800" grid="1" gridSize="10" guides="1" tooltips="1" connect="1" arrows="1" fold="1" page="1" pageScale="1" pageWidth="850" pageHeight="1100" math="0" shadow="0">
      <root>
        <mxCell id="0" />
        <mxCell id="1" parent="0" />
        <mxCell id="LmgJl3QgClOQrHPHKHds-1" value="" style="whiteSpace=wrap;html=1;aspect=fixed;" vertex="1" parent="1">
          <mxGeometry x="140" y="160" width="230" height="230" as="geometry" />
        </mxCell>
        <mxCell id="LmgJl3QgClOQrHPHKHds-2" value="&lt;b&gt;&lt;i&gt;&lt;font style=&quot;font-size: 44px&quot;&gt;NOR&lt;/font&gt;&lt;/i&gt;&lt;/b&gt;" style="text;html=1;strokeColor=none;fillColor=none;align=center;verticalAlign=middle;whiteSpace=wrap;rounded=0;" vertex="1" parent="1">
          <mxGeometry x="205" y="245" width="100" height="60" as="geometry" />
        </mxCell>
        <mxCell id="LmgJl3QgClOQrHPHKHds-3" value="&lt;font style=&quot;font-size: 20px&quot;&gt;A&lt;/font&gt;" style="text;html=1;strokeColor=none;fillColor=none;align=center;verticalAlign=middle;whiteSpace=wrap;rounded=0;" vertex="1" parent="1">
          <mxGeometry x="105" y="170" width="40" height="20" as="geometry" />
        </mxCell>
        <mxCell id="LmgJl3QgClOQrHPHKHds-4" value="&lt;font style=&quot;font-size: 20px&quot;&gt;B&lt;/font&gt;" style="text;html=1;align=center;verticalAlign=middle;resizable=0;points=[];autosize=1;" vertex="1" parent="1">
          <mxGeometry x="110" y="225" width="30" height="20" as="geometry" />
        </mxCell>
        <mxCell id="LmgJl3QgClOQrHPHKHds-5" value="&lt;font style=&quot;font-size: 20px&quot;&gt;C&lt;/font&gt;" style="text;html=1;align=center;verticalAlign=middle;resizable=0;points=[];autosize=1;" vertex="1" parent="1">
          <mxGeometry x="110" y="285" width="30" height="20" as="geometry" />
        </mxCell>
        <mxCell id="LmgJl3QgClOQrHPHKHds-6" value="&lt;font style=&quot;font-size: 20px&quot;&gt;D&lt;/font&gt;" style="text;html=1;align=center;verticalAlign=middle;resizable=0;points=[];autosize=1;" vertex="1" parent="1">
          <mxGeometry x="110" y="350" width="30" height="20" as="geometry" />
        </mxCell>
        <mxCell id="LmgJl3QgClOQrHPHKHds-7" value="&lt;font style=&quot;font-size: 20px&quot;&gt;E&lt;/font&gt;" style="text;html=1;strokeColor=none;fillColor=none;align=center;verticalAlign=middle;whiteSpace=wrap;rounded=0;" vertex="1" parent="1">
          <mxGeometry x="385" y="265" width="40" height="20" as="geometry" />
        </mxCell>
        <mxCell id="LmgJl3QgClOQrHPHKHds-8" value="" style="endArrow=none;html=1;" edge="1" parent="1">
          <mxGeometry width="50" height="50" relative="1" as="geometry">
            <mxPoint x="290" y="690" as="sourcePoint" />
            <mxPoint x="290" y="440" as="targetPoint" />
          </mxGeometry>
        </mxCell>
        <mxCell id="LmgJl3QgClOQrHPHKHds-14" value="A&amp;nbsp; &amp;nbsp;B&amp;nbsp; &amp;nbsp;C&amp;nbsp; &amp;nbsp;D&lt;br&gt;&lt;br&gt;0&amp;nbsp; &amp;nbsp;0&amp;nbsp; &amp;nbsp;0&amp;nbsp; &amp;nbsp;0&lt;br&gt;1&amp;nbsp; &amp;nbsp;0&amp;nbsp; &amp;nbsp;0&amp;nbsp; &amp;nbsp;0&lt;br&gt;1&amp;nbsp; &amp;nbsp;1&amp;nbsp; &amp;nbsp;0&amp;nbsp; &amp;nbsp;0&lt;br&gt;1&amp;nbsp; &amp;nbsp;1&amp;nbsp; &amp;nbsp;1&amp;nbsp; &amp;nbsp;0&lt;br&gt;1&amp;nbsp; &amp;nbsp;1&amp;nbsp; &amp;nbsp;1&amp;nbsp; &amp;nbsp;1&lt;br&gt;0&amp;nbsp; &amp;nbsp;1&amp;nbsp; &amp;nbsp;1&amp;nbsp; &amp;nbsp;1&lt;br&gt;0&amp;nbsp; &amp;nbsp;0&amp;nbsp; &amp;nbsp;1&amp;nbsp; &amp;nbsp;1&lt;br&gt;0&amp;nbsp; &amp;nbsp;0&amp;nbsp; &amp;nbsp;0&amp;nbsp; &amp;nbsp;1&lt;br&gt;0&amp;nbsp; &amp;nbsp;0&amp;nbsp; &amp;nbsp;1&amp;nbsp; &amp;nbsp;0&lt;br&gt;0&amp;nbsp; &amp;nbsp;1&amp;nbsp; &amp;nbsp;0&amp;nbsp; &amp;nbsp;0&lt;br&gt;0&amp;nbsp; &amp;nbsp;1&amp;nbsp; &amp;nbsp;0&amp;nbsp; &amp;nbsp;1&lt;br&gt;0&amp;nbsp; &amp;nbsp;1&amp;nbsp; &amp;nbsp;1&amp;nbsp; &amp;nbsp;0&lt;br&gt;1&amp;nbsp; &amp;nbsp;0&amp;nbsp; &amp;nbsp;0&amp;nbsp; &amp;nbsp;1&lt;br&gt;1&amp;nbsp; &amp;nbsp;0&amp;nbsp; &amp;nbsp;1&amp;nbsp; &amp;nbsp;0&lt;br&gt;1&amp;nbsp; &amp;nbsp;0&amp;nbsp; &amp;nbsp;1&amp;nbsp; &amp;nbsp;1&lt;br&gt;1&amp;nbsp; &amp;nbsp;1&amp;nbsp; &amp;nbsp;0&amp;nbsp; &amp;nbsp;1" style="text;html=1;align=center;verticalAlign=middle;resizable=0;points=[];autosize=1;" vertex="1" parent="1">
          <mxGeometry x="205" y="435" width="80" height="260" as="geometry" />
        </mxCell>
        <mxCell id="LmgJl3QgClOQrHPHKHds-18" value="E&lt;br&gt;&lt;br&gt;1&lt;br&gt;0&lt;br&gt;0&lt;br&gt;0&lt;br&gt;0&lt;br&gt;0&lt;br&gt;0&lt;br&gt;0&lt;br&gt;0&lt;br&gt;0&lt;br&gt;0&lt;br&gt;0&lt;br&gt;0&lt;br&gt;0&lt;br&gt;0&lt;br&gt;0" style="text;html=1;align=center;verticalAlign=middle;resizable=0;points=[];autosize=1;" vertex="1" parent="1">
          <mxGeometry x="300" y="435" width="20" height="260" as="geometry" />
        </mxCell>
        <mxCell id="LmgJl3QgClOQrHPHKHds-20" value="" style="endArrow=none;html=1;" edge="1" parent="1">
          <mxGeometry width="50" height="50" relative="1" as="geometry">
            <mxPoint x="330" y="460" as="sourcePoint" />
            <mxPoint x="200" y="460" as="targetPoint" />
          </mxGeometry>
        </mxCell>
        <mxCell id="LmgJl3QgClOQrHPHKHds-21" value="" style="rounded=0;whiteSpace=wrap;html=1;fillColor=none;" vertex="1" parent="1">
          <mxGeometry x="200" y="435" width="130" height="255" as="geometry" />
        </mxCell>
        <mxCell id="LmgJl3QgClOQrHPHKHds-23" value="" style="whiteSpace=wrap;html=1;aspect=fixed;" vertex="1" parent="1">
          <mxGeometry x="130" y="760" width="230" height="230" as="geometry" />
        </mxCell>
        <mxCell id="LmgJl3QgClOQrHPHKHds-25" value="&lt;font style=&quot;font-size: 20px&quot;&gt;A&lt;/font&gt;" style="text;html=1;strokeColor=none;fillColor=none;align=center;verticalAlign=middle;whiteSpace=wrap;rounded=0;" vertex="1" parent="1">
          <mxGeometry x="95" y="770" width="40" height="20" as="geometry" />
        </mxCell>
        <mxCell id="LmgJl3QgClOQrHPHKHds-26" value="&lt;font style=&quot;font-size: 20px&quot;&gt;B&lt;/font&gt;" style="text;html=1;align=center;verticalAlign=middle;resizable=0;points=[];autosize=1;" vertex="1" parent="1">
          <mxGeometry x="100" y="825" width="30" height="20" as="geometry" />
        </mxCell>
        <mxCell id="LmgJl3QgClOQrHPHKHds-27" value="&lt;font style=&quot;font-size: 20px&quot;&gt;C&lt;/font&gt;" style="text;html=1;align=center;verticalAlign=middle;resizable=0;points=[];autosize=1;" vertex="1" parent="1">
          <mxGeometry x="100" y="885" width="30" height="20" as="geometry" />
        </mxCell>
        <mxCell id="LmgJl3QgClOQrHPHKHds-28" value="&lt;font style=&quot;font-size: 20px&quot;&gt;D&lt;/font&gt;" style="text;html=1;align=center;verticalAlign=middle;resizable=0;points=[];autosize=1;" vertex="1" parent="1">
          <mxGeometry x="100" y="950" width="30" height="20" as="geometry" />
        </mxCell>
        <mxCell id="LmgJl3QgClOQrHPHKHds-29" value="&lt;font style=&quot;font-size: 20px&quot;&gt;E&lt;/font&gt;" style="text;html=1;strokeColor=none;fillColor=none;align=center;verticalAlign=middle;whiteSpace=wrap;rounded=0;" vertex="1" parent="1">
          <mxGeometry x="375" y="865" width="40" height="20" as="geometry" />
        </mxCell>
        <mxCell id="LmgJl3QgClOQrHPHKHds-35" style="edgeStyle=orthogonalEdgeStyle;rounded=0;orthogonalLoop=1;jettySize=auto;html=1;exitX=1;exitY=0.5;exitDx=0;exitDy=0;exitPerimeter=0;entryX=0;entryY=0.5;entryDx=0;entryDy=0;" edge="1" parent="1" source="LmgJl3QgClOQrHPHKHds-30" target="LmgJl3QgClOQrHPHKHds-33">
          <mxGeometry relative="1" as="geometry" />
        </mxCell>
        <mxCell id="LmgJl3QgClOQrHPHKHds-30" value="" style="verticalLabelPosition=bottom;shadow=0;dashed=0;align=center;html=1;verticalAlign=top;shape=mxgraph.electrical.logic_gates.logic_gate;operation=or;fillColor=#ffffff;" vertex="1" parent="1">
          <mxGeometry x="130" y="770" width="100" height="95" as="geometry" />
        </mxCell>
        <mxCell id="LmgJl3QgClOQrHPHKHds-34" style="edgeStyle=orthogonalEdgeStyle;rounded=0;orthogonalLoop=1;jettySize=auto;html=1;exitX=1;exitY=0.5;exitDx=0;exitDy=0;exitPerimeter=0;entryX=0;entryY=0.5;entryDx=0;entryDy=0;" edge="1" parent="1" source="LmgJl3QgClOQrHPHKHds-31" target="LmgJl3QgClOQrHPHKHds-33">
          <mxGeometry relative="1" as="geometry" />
        </mxCell>
        <mxCell id="LmgJl3QgClOQrHPHKHds-31" value="" style="verticalLabelPosition=bottom;shadow=0;dashed=0;align=center;html=1;verticalAlign=top;shape=mxgraph.electrical.logic_gates.logic_gate;operation=or;fillColor=#ffffff;" vertex="1" parent="1">
          <mxGeometry x="130" y="885" width="100" height="95" as="geometry" />
        </mxCell>
        <mxCell id="LmgJl3QgClOQrHPHKHds-33" value="" style="verticalLabelPosition=bottom;shadow=0;dashed=0;align=center;html=1;verticalAlign=top;shape=mxgraph.electrical.logic_gates.buffer2;negating=1;fillColor=#ffffff;" vertex="1" parent="1">
          <mxGeometry x="260" y="845" width="100" height="60" as="geometry" />
        </mxCell>
      </root>
    </mxGraphModel>
  </diagram>
</mxfile>
